<svg width="812" height="577" xmlns="http://www.w3.org/2000/svg">
 <title>mountain</title>

 <g id="Layer_1">
  <title>Layer 1</title>
  <ellipse stroke="#000" ry="222.5" rx="215" id="svg_14" cy="352.49999" cx="396.25502" fill="#ffe61b"/>
  <path fill="#4c261d" d="m450.78999,576.35911l134.99998,-234.00004l134.99998,234.00004l-269.99997,0l0.00001,0z" id="svg_1" stroke="#000"/>
  <path stroke="#000" id="svg_7" d="m77.08003,576.44786l127.49996,-259.00011l127.49996,259.00011l-254.99992,0z" fill="#4c261d"/>
  <path stroke="#000" id="svg_3" d="m195.24505,576.31287l208.49995,-363l208.49995,363l-416.99989,0l-0.00001,0z" fill="#4c261d"/>
  <path id="svg_5" d="m162.74503,574.54785l45,-123.99999l45,123.99999l-90.00001,0l0.00001,0z" stroke="#000" fill="#4c261d"/>
  <path stroke="#000" id="svg_6" d="m523.53991,575.52919l56.00002,-115.00003l56.00002,115.00003l-112.00004,0z" fill="#4c261d"/>
  <path fill="#d2e4fb" d="m322.56505,354.04909l81,-142l81,142l-162.00001,0l0.00001,0z" id="svg_4" stroke="#000"/>
  <path fill="#d2e4fb" d="m170.79495,385.22911l33.50004,-68.00003l33.50004,68.00003l-67.00009,0l0.00001,0z" id="svg_8" stroke="#000"/>
  <path fill="#d2e4fb" d="m540.52507,419.40909l45.00001,-79.00001l45.00001,79.00001l-90.00001,0l-0.00001,0z" id="svg_9" stroke="#000"/>
 </g>
</svg>